 http://img703.imageshack.us/img703/3584/20101108154325.png

Country.......: USA
Genre.........: Horror, Thriller, Crime
Date release..: 2010 [World]
Director......: John Kramer
Duration......: 148 min.
Trailer.......:

Pilot :
The Jigsaw Files is the attempt to restructure the flashbacks in linear fashion and tell the story about John Kramer, Jill Tuck, Amanda Young and Mark Hoffman. The story of this edit starts with John whose wife loses her child in an accident caused by the addict Cecil. Coming believe that people can only appreciate their life when faced with death John starts to construct diabolic traps the game is about to begin.

Cats :
Unknown

Data Technical :
!!! SAMPLE !!!
Audio.....: English
Subtitles.: Spanish .srt
Format                           : AVI
Format/Info                      : Audio Video Interleave
Format profile                   : OpenDML
File size                        : 1.99 GiB
Duration                         : 2h 27mn
Overall bit rate                 : 1 932 Kbps
Writing application              : VirtualDubMod 1.5.4.1 (build 2178/release)
Writing library                  : VirtualDubMod build 2178/release
Video
ID                               : 0
Format                           : MPEG-4 Visual
Format settings, BVOP            : No
Format settings, QPel            : No
Format settings, GMC             : No warppoints
Format settings, Matrix          : Default (H.263)
Codec ID                         : DX50
Codec ID/Hint                    : DivX 5
Duration                         : 2h 27mn
Bit rate                         : 1 730 Kbps
Width                            : 720 pixels
Height                           : 416 pixels
Display aspect ratio             : 16:9
Frame rate                       : 23.976 fps
Color space                      : YUV
Chroma subsampling               : 4:2:0
Bit depth                        : 8 bits
Scan type                        : Progressive
Bits/(Pixel*Frame)               : 0.241
Stream size                      : 1.79 GiB (90%)
Writing library                  : DivX 6.2.2 (UTC 2006-04-26)
Audio
ID                               : 1
Format                           : MPEG Audio
Format version                   : Version 1
Format profile                   : Layer 2
Codec ID                         : 50
Duration                         : 2h 27mn
Bit rate mode                    : Constant
Bit rate                         : 192 Kbps
Channel(s)                       : 2 channels
Sampling rate                    : 48.0 KHz
Stream size                      : 203 MiB (10%)
Alignment                        : Aligned on interleaves
Interleave, duration             : 83 ms (2.00 video frames)
Interleave, preload duration     : 504 ms

Screen : 
http://img844.imageshack.us/img844/4831/thejigsawfiles2010s1.jpg 
http://img15.imageshack.us/img15/4695/thejigsawfiles2010s2.jpg 
http://img695.imageshack.us/img695/4113/thejigsawfiles2010s3.jpg 
http://img851.imageshack.us/img851/7698/thejigsawfiles2010s4.jpg 
http://img24.imageshack.us/img24/5113/thejigsawfiles2010s5.jpg